<svg width="287" height="101" viewBox="0 0 287 101" fill="none" xmlns="http://www.w3.org/2000/svg">
<path d="M10.3434 18H8.51945L3.03145 9.696V18H1.20745V6.864H3.03145L8.51945 15.152V6.864H10.3434V18ZM20.8187 13.376C20.8187 13.7067 20.7974 14.0053 20.7547 14.272H14.0187C14.072 14.976 14.3334 15.5413 14.8027 15.968C15.272 16.3947 15.848 16.608 16.5307 16.608C17.512 16.608 18.2054 16.1973 18.6107 15.376H20.5787C20.312 16.1867 19.8267 16.8533 19.1227 17.376C18.4294 17.888 17.5654 18.144 16.5307 18.144C15.688 18.144 14.9307 17.9573 14.2587 17.584C13.5974 17.2 13.0747 16.6667 12.6907 15.984C12.3174 15.2907 12.1307 14.4907 12.1307 13.584C12.1307 12.6773 12.312 11.8827 12.6747 11.2C13.048 10.5067 13.5654 9.97333 14.2267 9.6C14.8987 9.22667 15.6667 9.04 16.5307 9.04C17.3627 9.04 18.104 9.22133 18.7547 9.584C19.4054 9.94667 19.912 10.4587 20.2747 11.12C20.6374 11.7707 20.8187 12.5227 20.8187 13.376ZM18.9147 12.8C18.904 12.128 18.664 11.5893 18.1947 11.184C17.7254 10.7787 17.144 10.576 16.4507 10.576C15.8214 10.576 15.2827 10.7787 14.8347 11.184C14.3867 11.5787 14.12 12.1173 14.0347 12.8H18.9147ZM34.4537 9.184L31.7177 18H29.7977L28.0217 11.488L26.2457 18H24.3257L21.5737 9.184H23.4297L25.2697 16.272L27.1417 9.184H29.0457L30.8377 16.24L32.6617 9.184H34.4537ZM39.0168 18.144C38.3235 18.144 37.6995 18.0213 37.1448 17.776C36.6008 17.52 36.1688 17.1787 35.8488 16.752C35.5288 16.3147 35.3582 15.8293 35.3368 15.296H37.2248C37.2568 15.6693 37.4328 15.984 37.7528 16.24C38.0835 16.4853 38.4942 16.608 38.9848 16.608C39.4968 16.608 39.8915 16.512 40.1688 16.32C40.4568 16.1173 40.6008 15.8613 40.6008 15.552C40.6008 15.2213 40.4408 14.976 40.1208 14.816C39.8115 14.656 39.3155 14.48 38.6328 14.288C37.9715 14.1067 37.4328 13.9307 37.0168 13.76C36.6008 13.5893 36.2382 13.328 35.9288 12.976C35.6302 12.624 35.4808 12.16 35.4808 11.584C35.4808 11.1147 35.6195 10.688 35.8968 10.304C36.1742 9.90933 36.5688 9.6 37.0808 9.376C37.6035 9.152 38.2008 9.04 38.8728 9.04C39.8755 9.04 40.6808 9.296 41.2888 9.808C41.9075 10.3093 42.2382 10.9973 42.2808 11.872H40.4568C40.4248 11.4773 40.2648 11.1627 39.9768 10.928C39.6888 10.6933 39.2995 10.576 38.8088 10.576C38.3288 10.576 37.9608 10.6667 37.7048 10.848C37.4488 11.0293 37.3208 11.2693 37.3208 11.568C37.3208 11.8027 37.4062 12 37.5768 12.16C37.7475 12.32 37.9555 12.448 38.2008 12.544C38.4462 12.6293 38.8088 12.7413 39.2888 12.88C39.9288 13.0507 40.4515 13.2267 40.8568 13.408C41.2728 13.5787 41.6302 13.8347 41.9288 14.176C42.2275 14.5173 42.3822 14.9707 42.3928 15.536C42.3928 16.0373 42.2542 16.4853 41.9768 16.88C41.6995 17.2747 41.3048 17.584 40.7928 17.808C40.2915 18.032 39.6995 18.144 39.0168 18.144ZM46.1877 6.16V18H44.3637V6.16H46.1877ZM56.6624 13.376C56.6624 13.7067 56.6411 14.0053 56.5984 14.272H49.8624C49.9158 14.976 50.1771 15.5413 50.6464 15.968C51.1158 16.3947 51.6918 16.608 52.3744 16.608C53.3558 16.608 54.0491 16.1973 54.4544 15.376H56.4224C56.1558 16.1867 55.6704 16.8533 54.9664 17.376C54.2731 17.888 53.4091 18.144 52.3744 18.144C51.5318 18.144 50.7744 17.9573 50.1024 17.584C49.4411 17.2 48.9184 16.6667 48.5344 15.984C48.1611 15.2907 47.9744 14.4907 47.9744 13.584C47.9744 12.6773 48.1558 11.8827 48.5184 11.2C48.8918 10.5067 49.4091 9.97333 50.0704 9.6C50.7424 9.22667 51.5104 9.04 52.3744 9.04C53.2064 9.04 53.9478 9.22133 54.5984 9.584C55.2491 9.94667 55.7558 10.4587 56.1184 11.12C56.4811 11.7707 56.6624 12.5227 56.6624 13.376ZM54.7584 12.8C54.7478 12.128 54.5078 11.5893 54.0384 11.184C53.5691 10.7787 52.9878 10.576 52.2944 10.576C51.6651 10.576 51.1264 10.7787 50.6784 11.184C50.2304 11.5787 49.9638 12.1173 49.8784 12.8H54.7584ZM60.5854 10.672V15.552C60.5854 15.8827 60.6601 16.1227 60.8094 16.272C60.9694 16.4107 61.2361 16.48 61.6094 16.48H62.7294V18H61.2894C60.4681 18 59.8388 17.808 59.4014 17.424C58.9641 17.04 58.7454 16.416 58.7454 15.552V10.672H57.7054V9.184H58.7454V6.992H60.5854V9.184H62.7294V10.672H60.5854ZM66.5386 10.672V15.552C66.5386 15.8827 66.6132 16.1227 66.7626 16.272C66.9226 16.4107 67.1892 16.48 67.5626 16.48H68.6826V18H67.2426C66.4212 18 65.7919 17.808 65.3546 17.424C64.9172 17.04 64.6986 16.416 64.6986 15.552V10.672H63.6586V9.184H64.6986V6.992H66.5386V9.184H68.6826V10.672H66.5386ZM78.4437 13.376C78.4437 13.7067 78.4224 14.0053 78.3797 14.272H71.6437C71.697 14.976 71.9584 15.5413 72.4277 15.968C72.897 16.3947 73.473 16.608 74.1557 16.608C75.137 16.608 75.8304 16.1973 76.2357 15.376H78.2037C77.937 16.1867 77.4517 16.8533 76.7477 17.376C76.0544 17.888 75.1904 18.144 74.1557 18.144C73.313 18.144 72.5557 17.9573 71.8837 17.584C71.2224 17.2 70.6997 16.6667 70.3157 15.984C69.9424 15.2907 69.7557 14.4907 69.7557 13.584C69.7557 12.6773 69.937 11.8827 70.2997 11.2C70.673 10.5067 71.1904 9.97333 71.8517 9.6C72.5237 9.22667 73.2917 9.04 74.1557 9.04C74.9877 9.04 75.729 9.22133 76.3797 9.584C77.0304 9.94667 77.537 10.4587 77.8997 11.12C78.2624 11.7707 78.4437 12.5227 78.4437 13.376ZM76.5397 12.8C76.529 12.128 76.289 11.5893 75.8197 11.184C75.3504 10.7787 74.769 10.576 74.0757 10.576C73.4464 10.576 72.9077 10.7787 72.4597 11.184C72.0117 11.5787 71.745 12.1173 71.6597 12.8H76.5397ZM82.0627 10.464C82.3294 10.016 82.6814 9.66933 83.1187 9.424C83.5667 9.168 84.0947 9.04 84.7027 9.04V10.928H84.2387C83.524 10.928 82.98 11.1093 82.6067 11.472C82.244 11.8347 82.0627 12.464 82.0627 13.36V18H80.2387V9.184H82.0627V10.464Z" fill="#9F9F9F"/>
<path d="M2.35945 83.278V86.54H5.91545V87.59H2.35945V90.95H6.33545V92H1.08545V82.228H6.33545V83.278H2.35945ZM12.0012 84.188C12.9345 84.188 13.6905 84.4727 14.2692 85.042C14.8478 85.602 15.1372 86.414 15.1372 87.478V92H13.8772V87.66C13.8772 86.8947 13.6858 86.3113 13.3032 85.91C12.9205 85.4993 12.3978 85.294 11.7352 85.294C11.0632 85.294 10.5265 85.504 10.1252 85.924C9.73318 86.344 9.53718 86.9553 9.53718 87.758V92H8.26318V84.328H9.53718V85.42C9.78918 85.028 10.1298 84.7247 10.5592 84.51C10.9978 84.2953 11.4785 84.188 12.0012 84.188ZM18.7723 85.378V89.9C18.7723 90.2733 18.8516 90.5393 19.0103 90.698C19.1689 90.8473 19.4443 90.922 19.8363 90.922H20.7743V92H19.6263C18.9169 92 18.3849 91.8367 18.0303 91.51C17.6756 91.1833 17.4983 90.6467 17.4983 89.9V85.378H16.5043V84.328H17.4983V82.396H18.7723V84.328H20.7743V85.378H18.7723ZM29.3179 87.87C29.3179 88.1127 29.3039 88.3693 29.2759 88.64H23.1439C23.1905 89.396 23.4472 89.9887 23.9139 90.418C24.3899 90.838 24.9639 91.048 25.6359 91.048C26.1865 91.048 26.6439 90.922 27.0079 90.67C27.3812 90.4087 27.6425 90.0633 27.7919 89.634H29.1639C28.9585 90.3713 28.5479 90.9733 27.9319 91.44C27.3159 91.8973 26.5505 92.126 25.6359 92.126C24.9079 92.126 24.2545 91.9627 23.6759 91.636C23.1065 91.3093 22.6585 90.8473 22.3319 90.25C22.0052 89.6433 21.8419 88.9433 21.8419 88.15C21.8419 87.3567 22.0005 86.6613 22.3179 86.064C22.6352 85.4667 23.0785 85.0093 23.6479 84.692C24.2265 84.3653 24.8892 84.202 25.6359 84.202C26.3639 84.202 27.0079 84.3607 27.5679 84.678C28.1279 84.9953 28.5572 85.434 28.8559 85.994C29.1639 86.5447 29.3179 87.17 29.3179 87.87ZM28.0019 87.604C28.0019 87.1187 27.8945 86.7033 27.6799 86.358C27.4652 86.0033 27.1712 85.7373 26.7979 85.56C26.4339 85.3733 26.0279 85.28 25.5799 85.28C24.9359 85.28 24.3852 85.4853 23.9279 85.896C23.4799 86.3067 23.2232 86.876 23.1579 87.604H28.0019ZM32.2735 85.574C32.4975 85.1353 32.8148 84.7947 33.2255 84.552C33.6455 84.3093 34.1542 84.188 34.7515 84.188V85.504H34.4155C32.9875 85.504 32.2735 86.2787 32.2735 87.828V92H30.9995V84.328H32.2735V85.574ZM46.7866 82.242L43.6086 88.318V92H42.3346V88.318L39.1426 82.242H40.5566L42.9646 87.184L45.3726 82.242H46.7866ZM51.4764 92.126C50.7577 92.126 50.1044 91.9627 49.5164 91.636C48.9377 91.3093 48.4804 90.8473 48.1444 90.25C47.8177 89.6433 47.6544 88.9433 47.6544 88.15C47.6544 87.366 47.8224 86.6753 48.1584 86.078C48.5037 85.4713 48.9704 85.0093 49.5584 84.692C50.1464 84.3653 50.8044 84.202 51.5324 84.202C52.2604 84.202 52.9184 84.3653 53.5064 84.692C54.0944 85.0093 54.5564 85.4667 54.8924 86.064C55.2377 86.6613 55.4104 87.3567 55.4104 88.15C55.4104 88.9433 55.233 89.6433 54.8784 90.25C54.533 90.8473 54.0617 91.3093 53.4644 91.636C52.867 91.9627 52.2044 92.126 51.4764 92.126ZM51.4764 91.006C51.9337 91.006 52.363 90.8987 52.7644 90.684C53.1657 90.4693 53.4877 90.1473 53.7304 89.718C53.9824 89.2887 54.1084 88.766 54.1084 88.15C54.1084 87.534 53.987 87.0113 53.7444 86.582C53.5017 86.1527 53.1844 85.8353 52.7924 85.63C52.4004 85.4153 51.9757 85.308 51.5184 85.308C51.0517 85.308 50.6224 85.4153 50.2304 85.63C49.8477 85.8353 49.5397 86.1527 49.3064 86.582C49.073 87.0113 48.9564 87.534 48.9564 88.15C48.9564 88.7753 49.0684 89.3027 49.2924 89.732C49.5257 90.1613 49.8337 90.4833 50.2164 90.698C50.599 90.9033 51.019 91.006 51.4764 91.006ZM63.8894 84.328V92H62.6154V90.866C62.3728 91.258 62.0321 91.566 61.5934 91.79C61.1641 92.0047 60.6881 92.112 60.1654 92.112C59.5681 92.112 59.0314 91.9907 58.5554 91.748C58.0794 91.496 57.7014 91.1227 57.4214 90.628C57.1508 90.1333 57.0154 89.5313 57.0154 88.822V84.328H58.2754V88.654C58.2754 89.41 58.4668 89.9933 58.8494 90.404C59.2321 90.8053 59.7548 91.006 60.4174 91.006C61.0988 91.006 61.6354 90.796 62.0274 90.376C62.4194 89.956 62.6154 89.3447 62.6154 88.542V84.328H63.8894ZM67.3145 85.574C67.5385 85.1353 67.8559 84.7947 68.2665 84.552C68.6865 84.3093 69.1952 84.188 69.7925 84.188V85.504H69.4565C68.0285 85.504 67.3145 86.2787 67.3145 87.828V92H66.0405V84.328H67.3145V85.574ZM76.2696 83.278V86.54H79.8256V87.59H76.2696V90.95H80.2456V92H74.9956V82.228H80.2456V83.278H76.2696ZM91.3993 84.188C91.9967 84.188 92.5287 84.314 92.9953 84.566C93.462 84.8087 93.8307 85.1773 94.1013 85.672C94.372 86.1667 94.5073 86.7687 94.5073 87.478V92H93.2473V87.66C93.2473 86.8947 93.056 86.3113 92.6733 85.91C92.3 85.4993 91.7913 85.294 91.1473 85.294C90.4847 85.294 89.9573 85.5087 89.5653 85.938C89.1733 86.358 88.9773 86.9693 88.9773 87.772V92H87.7173V87.66C87.7173 86.8947 87.526 86.3113 87.1433 85.91C86.77 85.4993 86.2613 85.294 85.6173 85.294C84.9547 85.294 84.4273 85.5087 84.0353 85.938C83.6433 86.358 83.4473 86.9693 83.4473 87.772V92H82.1733V84.328H83.4473V85.434C83.6993 85.0327 84.0353 84.7247 84.4553 84.51C84.8847 84.2953 85.356 84.188 85.8693 84.188C86.5133 84.188 87.0827 84.3327 87.5773 84.622C88.072 84.9113 88.4407 85.336 88.6833 85.896C88.898 85.3547 89.2527 84.9347 89.7473 84.636C90.242 84.3373 90.7927 84.188 91.3993 84.188ZM96.1212 88.136C96.1212 87.352 96.2798 86.666 96.5972 86.078C96.9145 85.4807 97.3485 85.0187 97.8992 84.692C98.4592 84.3653 99.0798 84.202 99.7612 84.202C100.433 84.202 101.016 84.3467 101.511 84.636C102.006 84.9253 102.374 85.2893 102.617 85.728V84.328H103.905V92H102.617V90.572C102.365 91.02 101.987 91.3933 101.483 91.692C100.988 91.9813 100.41 92.126 99.7472 92.126C99.0658 92.126 98.4498 91.958 97.8992 91.622C97.3485 91.286 96.9145 90.8147 96.5972 90.208C96.2798 89.6013 96.1212 88.9107 96.1212 88.136ZM102.617 88.15C102.617 87.5713 102.5 87.0673 102.267 86.638C102.034 86.2087 101.716 85.882 101.315 85.658C100.923 85.4247 100.489 85.308 100.013 85.308C99.5372 85.308 99.1032 85.42 98.7112 85.644C98.3192 85.868 98.0065 86.1947 97.7732 86.624C97.5398 87.0533 97.4232 87.5573 97.4232 88.136C97.4232 88.724 97.5398 89.2373 97.7732 89.676C98.0065 90.1053 98.3192 90.4367 98.7112 90.67C99.1032 90.894 99.5372 91.006 100.013 91.006C100.489 91.006 100.923 90.894 101.315 90.67C101.716 90.4367 102.034 90.1053 102.267 89.676C102.5 89.2373 102.617 88.7287 102.617 88.15ZM106.716 83.082C106.473 83.082 106.268 82.998 106.1 82.83C105.932 82.662 105.848 82.4567 105.848 82.214C105.848 81.9713 105.932 81.766 106.1 81.598C106.268 81.43 106.473 81.346 106.716 81.346C106.949 81.346 107.145 81.43 107.304 81.598C107.472 81.766 107.556 81.9713 107.556 82.214C107.556 82.4567 107.472 82.662 107.304 82.83C107.145 82.998 106.949 83.082 106.716 83.082ZM107.332 84.328V92H106.058V84.328H107.332ZM110.777 81.64V92H109.503V81.64H110.777ZM122.449 89.83H118.193L117.409 92H116.065L119.593 82.298H121.063L124.577 92H123.233L122.449 89.83ZM122.085 88.794L120.321 83.866L118.557 88.794H122.085ZM125.639 88.136C125.639 87.352 125.797 86.666 126.115 86.078C126.432 85.4807 126.866 85.0187 127.417 84.692C127.977 84.3653 128.602 84.202 129.293 84.202C129.89 84.202 130.445 84.342 130.959 84.622C131.472 84.8927 131.864 85.252 132.135 85.7V81.64H133.423V92H132.135V90.558C131.883 91.0153 131.509 91.3933 131.015 91.692C130.52 91.9813 129.941 92.126 129.279 92.126C128.597 92.126 127.977 91.958 127.417 91.622C126.866 91.286 126.432 90.8147 126.115 90.208C125.797 89.6013 125.639 88.9107 125.639 88.136ZM132.135 88.15C132.135 87.5713 132.018 87.0673 131.785 86.638C131.551 86.2087 131.234 85.882 130.833 85.658C130.441 85.4247 130.007 85.308 129.531 85.308C129.055 85.308 128.621 85.42 128.229 85.644C127.837 85.868 127.524 86.1947 127.291 86.624C127.057 87.0533 126.941 87.5573 126.941 88.136C126.941 88.724 127.057 89.2373 127.291 89.676C127.524 90.1053 127.837 90.4367 128.229 90.67C128.621 90.894 129.055 91.006 129.531 91.006C130.007 91.006 130.441 90.894 130.833 90.67C131.234 90.4367 131.551 90.1053 131.785 89.676C132.018 89.2373 132.135 88.7287 132.135 88.15ZM135.1 88.136C135.1 87.352 135.258 86.666 135.576 86.078C135.893 85.4807 136.327 85.0187 136.878 84.692C137.438 84.3653 138.063 84.202 138.754 84.202C139.351 84.202 139.906 84.342 140.42 84.622C140.933 84.8927 141.325 85.252 141.596 85.7V81.64H142.884V92H141.596V90.558C141.344 91.0153 140.97 91.3933 140.476 91.692C139.981 91.9813 139.402 92.126 138.74 92.126C138.058 92.126 137.438 91.958 136.878 91.622C136.327 91.286 135.893 90.8147 135.576 90.208C135.258 89.6013 135.1 88.9107 135.1 88.136ZM141.596 88.15C141.596 87.5713 141.479 87.0673 141.246 86.638C141.012 86.2087 140.695 85.882 140.294 85.658C139.902 85.4247 139.468 85.308 138.992 85.308C138.516 85.308 138.082 85.42 137.69 85.644C137.298 85.868 136.985 86.1947 136.752 86.624C136.518 87.0533 136.402 87.5573 136.402 88.136C136.402 88.724 136.518 89.2373 136.752 89.676C136.985 90.1053 137.298 90.4367 137.69 90.67C138.082 90.894 138.516 91.006 138.992 91.006C139.468 91.006 139.902 90.894 140.294 90.67C140.695 90.4367 141.012 90.1053 141.246 89.676C141.479 89.2373 141.596 88.7287 141.596 88.15ZM146.311 85.574C146.535 85.1353 146.852 84.7947 147.263 84.552C147.683 84.3093 148.191 84.188 148.789 84.188V85.504H148.453C147.025 85.504 146.311 86.2787 146.311 87.828V92H145.037V84.328H146.311V85.574ZM157.259 87.87C157.259 88.1127 157.245 88.3693 157.217 88.64H151.085C151.132 89.396 151.389 89.9887 151.855 90.418C152.331 90.838 152.905 91.048 153.577 91.048C154.128 91.048 154.585 90.922 154.949 90.67C155.323 90.4087 155.584 90.0633 155.733 89.634H157.105C156.9 90.3713 156.489 90.9733 155.873 91.44C155.257 91.8973 154.492 92.126 153.577 92.126C152.849 92.126 152.196 91.9627 151.617 91.636C151.048 91.3093 150.6 90.8473 150.273 90.25C149.947 89.6433 149.783 88.9433 149.783 88.15C149.783 87.3567 149.942 86.6613 150.259 86.064C150.577 85.4667 151.02 85.0093 151.589 84.692C152.168 84.3653 152.831 84.202 153.577 84.202C154.305 84.202 154.949 84.3607 155.509 84.678C156.069 84.9953 156.499 85.434 156.797 85.994C157.105 86.5447 157.259 87.17 157.259 87.87ZM155.943 87.604C155.943 87.1187 155.836 86.7033 155.621 86.358C155.407 86.0033 155.113 85.7373 154.739 85.56C154.375 85.3733 153.969 85.28 153.521 85.28C152.877 85.28 152.327 85.4853 151.869 85.896C151.421 86.3067 151.165 86.876 151.099 87.604H155.943ZM161.657 92.126C161.069 92.126 160.542 92.028 160.075 91.832C159.608 91.6267 159.24 91.3467 158.969 90.992C158.698 90.628 158.549 90.2127 158.521 89.746H159.837C159.874 90.1287 160.052 90.4413 160.369 90.684C160.696 90.9267 161.12 91.048 161.643 91.048C162.128 91.048 162.511 90.9407 162.791 90.726C163.071 90.5113 163.211 90.2407 163.211 89.914C163.211 89.578 163.062 89.3307 162.763 89.172C162.464 89.004 162.002 88.8407 161.377 88.682C160.808 88.5327 160.341 88.3833 159.977 88.234C159.622 88.0753 159.314 87.8467 159.053 87.548C158.801 87.24 158.675 86.8387 158.675 86.344C158.675 85.952 158.792 85.5927 159.025 85.266C159.258 84.9393 159.59 84.6827 160.019 84.496C160.448 84.3 160.938 84.202 161.489 84.202C162.338 84.202 163.024 84.4167 163.547 84.846C164.07 85.2753 164.35 85.8633 164.387 86.61H163.113C163.085 86.2087 162.922 85.8867 162.623 85.644C162.334 85.4013 161.942 85.28 161.447 85.28C160.99 85.28 160.626 85.378 160.355 85.574C160.084 85.77 159.949 86.0267 159.949 86.344C159.949 86.596 160.028 86.806 160.187 86.974C160.355 87.1327 160.56 87.2633 160.803 87.366C161.055 87.4593 161.4 87.5667 161.839 87.688C162.39 87.8373 162.838 87.9867 163.183 88.136C163.528 88.276 163.822 88.4907 164.065 88.78C164.317 89.0693 164.448 89.4473 164.457 89.914C164.457 90.334 164.34 90.712 164.107 91.048C163.874 91.384 163.542 91.65 163.113 91.846C162.693 92.0327 162.208 92.126 161.657 92.126ZM168.971 92.126C168.383 92.126 167.856 92.028 167.389 91.832C166.923 91.6267 166.554 91.3467 166.283 90.992C166.013 90.628 165.863 90.2127 165.835 89.746H167.151C167.189 90.1287 167.366 90.4413 167.683 90.684C168.01 90.9267 168.435 91.048 168.957 91.048C169.443 91.048 169.825 90.9407 170.105 90.726C170.385 90.5113 170.525 90.2407 170.525 89.914C170.525 89.578 170.376 89.3307 170.077 89.172C169.779 89.004 169.317 88.8407 168.691 88.682C168.122 88.5327 167.655 88.3833 167.291 88.234C166.937 88.0753 166.629 87.8467 166.367 87.548C166.115 87.24 165.989 86.8387 165.989 86.344C165.989 85.952 166.106 85.5927 166.339 85.266C166.573 84.9393 166.904 84.6827 167.333 84.496C167.763 84.3 168.253 84.202 168.803 84.202C169.653 84.202 170.339 84.4167 170.861 84.846C171.384 85.2753 171.664 85.8633 171.701 86.61H170.427C170.399 86.2087 170.236 85.8867 169.937 85.644C169.648 85.4013 169.256 85.28 168.761 85.28C168.304 85.28 167.94 85.378 167.669 85.574C167.399 85.77 167.263 86.0267 167.263 86.344C167.263 86.596 167.343 86.806 167.501 86.974C167.669 87.1327 167.875 87.2633 168.117 87.366C168.369 87.4593 168.715 87.5667 169.153 87.688C169.704 87.8373 170.152 87.9867 170.497 88.136C170.843 88.276 171.137 88.4907 171.379 88.78C171.631 89.0693 171.762 89.4473 171.771 89.914C171.771 90.334 171.655 90.712 171.421 91.048C171.188 91.384 170.857 91.65 170.427 91.846C170.007 92.0327 169.522 92.126 168.971 92.126Z" fill="#9F9F9F"/>
<line x1="0.00744629" y1="100.5" x2="200.007" y2="100.5" stroke="black"/>
<path d="M215.263 92.098C214.61 92.098 214.022 91.986 213.499 91.762C212.977 91.5287 212.566 91.202 212.267 90.782C211.969 90.362 211.819 89.872 211.819 89.312H213.527C213.565 89.732 213.728 90.0773 214.017 90.348C214.316 90.6187 214.731 90.754 215.263 90.754C215.814 90.754 216.243 90.6233 216.551 90.362C216.859 90.0913 217.013 89.746 217.013 89.326C217.013 88.9993 216.915 88.7333 216.719 88.528C216.533 88.3227 216.295 88.164 216.005 88.052C215.725 87.94 215.333 87.8187 214.829 87.688C214.195 87.52 213.677 87.352 213.275 87.184C212.883 87.0067 212.547 86.736 212.267 86.372C211.987 86.008 211.847 85.5227 211.847 84.916C211.847 84.356 211.987 83.866 212.267 83.446C212.547 83.026 212.939 82.704 213.443 82.48C213.947 82.256 214.531 82.144 215.193 82.144C216.136 82.144 216.906 82.382 217.503 82.858C218.11 83.3247 218.446 83.9687 218.511 84.79H216.747C216.719 84.4353 216.551 84.132 216.243 83.88C215.935 83.628 215.529 83.502 215.025 83.502C214.568 83.502 214.195 83.6187 213.905 83.852C213.616 84.0853 213.471 84.4213 213.471 84.86C213.471 85.1587 213.56 85.406 213.737 85.602C213.924 85.7887 214.157 85.938 214.437 86.05C214.717 86.162 215.1 86.2833 215.585 86.414C216.229 86.5913 216.752 86.7687 217.153 86.946C217.564 87.1233 217.909 87.3987 218.189 87.772C218.479 88.136 218.623 88.626 218.623 89.242C218.623 89.7367 218.488 90.2033 218.217 90.642C217.956 91.0807 217.569 91.4353 217.055 91.706C216.551 91.9673 215.954 92.098 215.263 92.098ZM222.089 82.27V88.472C222.089 89.2093 222.28 89.7647 222.663 90.138C223.055 90.5113 223.596 90.698 224.287 90.698C224.987 90.698 225.528 90.5113 225.911 90.138C226.303 89.7647 226.499 89.2093 226.499 88.472V82.27H228.095V88.444C228.095 89.2373 227.922 89.9093 227.577 90.46C227.231 91.0107 226.769 91.4213 226.191 91.692C225.612 91.9627 224.973 92.098 224.273 92.098C223.573 92.098 222.933 91.9627 222.355 91.692C221.785 91.4213 221.333 91.0107 220.997 90.46C220.661 89.9093 220.493 89.2373 220.493 88.444V82.27H222.089ZM235.381 87.002C235.903 87.0953 236.347 87.3707 236.711 87.828C237.075 88.2853 237.257 88.8033 237.257 89.382C237.257 89.8767 237.126 90.3247 236.865 90.726C236.613 91.118 236.244 91.4307 235.759 91.664C235.273 91.888 234.709 92 234.065 92H230.173V82.27H233.883C234.545 82.27 235.115 82.382 235.591 82.606C236.067 82.83 236.426 83.1333 236.669 83.516C236.911 83.8893 237.033 84.3093 237.033 84.776C237.033 85.336 236.883 85.8027 236.585 86.176C236.286 86.5493 235.885 86.8247 235.381 87.002ZM231.769 86.358H233.743C234.265 86.358 234.671 86.2413 234.961 86.008C235.259 85.7653 235.409 85.42 235.409 84.972C235.409 84.5333 235.259 84.1927 234.961 83.95C234.671 83.698 234.265 83.572 233.743 83.572H231.769V86.358ZM233.925 90.698C234.466 90.698 234.891 90.5673 235.199 90.306C235.507 90.0447 235.661 89.6807 235.661 89.214C235.661 88.738 235.497 88.36 235.171 88.08C234.844 87.8 234.41 87.66 233.869 87.66H231.769V90.698H233.925ZM242.197 92.098C241.544 92.098 240.956 91.986 240.433 91.762C239.91 91.5287 239.5 91.202 239.201 90.782C238.902 90.362 238.753 89.872 238.753 89.312H240.461C240.498 89.732 240.662 90.0773 240.951 90.348C241.25 90.6187 241.665 90.754 242.197 90.754C242.748 90.754 243.177 90.6233 243.485 90.362C243.793 90.0913 243.947 89.746 243.947 89.326C243.947 88.9993 243.849 88.7333 243.653 88.528C243.466 88.3227 243.228 88.164 242.939 88.052C242.659 87.94 242.267 87.8187 241.763 87.688C241.128 87.52 240.61 87.352 240.209 87.184C239.817 87.0067 239.481 86.736 239.201 86.372C238.921 86.008 238.781 85.5227 238.781 84.916C238.781 84.356 238.921 83.866 239.201 83.446C239.481 83.026 239.873 82.704 240.377 82.48C240.881 82.256 241.464 82.144 242.127 82.144C243.07 82.144 243.84 82.382 244.437 82.858C245.044 83.3247 245.38 83.9687 245.445 84.79H243.681C243.653 84.4353 243.485 84.132 243.177 83.88C242.869 83.628 242.463 83.502 241.959 83.502C241.502 83.502 241.128 83.6187 240.839 83.852C240.55 84.0853 240.405 84.4213 240.405 84.86C240.405 85.1587 240.494 85.406 240.671 85.602C240.858 85.7887 241.091 85.938 241.371 86.05C241.651 86.162 242.034 86.2833 242.519 86.414C243.163 86.5913 243.686 86.7687 244.087 86.946C244.498 87.1233 244.843 87.3987 245.123 87.772C245.412 88.136 245.557 88.626 245.557 89.242C245.557 89.7367 245.422 90.2033 245.151 90.642C244.89 91.0807 244.502 91.4353 243.989 91.706C243.485 91.9673 242.888 92.098 242.197 92.098ZM246.908 87.114C246.908 86.162 247.128 85.308 247.566 84.552C248.014 83.796 248.616 83.208 249.372 82.788C250.138 82.3587 250.973 82.144 251.878 82.144C252.914 82.144 253.834 82.4007 254.636 82.914C255.448 83.418 256.036 84.1367 256.4 85.07H254.482C254.23 84.5567 253.88 84.174 253.432 83.922C252.984 83.67 252.466 83.544 251.878 83.544C251.234 83.544 250.66 83.6887 250.156 83.978C249.652 84.2673 249.256 84.6827 248.966 85.224C248.686 85.7653 248.546 86.3953 248.546 87.114C248.546 87.8327 248.686 88.4627 248.966 89.004C249.256 89.5453 249.652 89.9653 250.156 90.264C250.66 90.5533 251.234 90.698 251.878 90.698C252.466 90.698 252.984 90.572 253.432 90.32C253.88 90.068 254.23 89.6853 254.482 89.172H256.4C256.036 90.1053 255.448 90.824 254.636 91.328C253.834 91.832 252.914 92.084 251.878 92.084C250.964 92.084 250.128 91.874 249.372 91.454C248.616 91.0247 248.014 90.432 247.566 89.676C247.128 88.92 246.908 88.066 246.908 87.114ZM263.322 92L261.082 88.108H259.864V92H258.268V82.27H261.628C262.375 82.27 263.005 82.4007 263.518 82.662C264.041 82.9233 264.428 83.2733 264.68 83.712C264.942 84.1507 265.072 84.6407 265.072 85.182C265.072 85.8167 264.886 86.3953 264.512 86.918C264.148 87.4313 263.584 87.7813 262.818 87.968L265.226 92H263.322ZM259.864 86.834H261.628C262.226 86.834 262.674 86.6847 262.972 86.386C263.28 86.0873 263.434 85.686 263.434 85.182C263.434 84.678 263.285 84.286 262.986 84.006C262.688 83.7167 262.235 83.572 261.628 83.572H259.864V86.834ZM268.71 82.27V92H267.114V82.27H268.71ZM276.013 87.002C276.536 87.0953 276.979 87.3707 277.343 87.828C277.707 88.2853 277.889 88.8033 277.889 89.382C277.889 89.8767 277.759 90.3247 277.497 90.726C277.245 91.118 276.877 91.4307 276.391 91.664C275.906 91.888 275.341 92 274.697 92H270.805V82.27H274.515C275.178 82.27 275.747 82.382 276.223 82.606C276.699 82.83 277.059 83.1333 277.301 83.516C277.544 83.8893 277.665 84.3093 277.665 84.776C277.665 85.336 277.516 85.8027 277.217 86.176C276.919 86.5493 276.517 86.8247 276.013 87.002ZM272.401 86.358H274.375C274.898 86.358 275.304 86.2413 275.593 86.008C275.892 85.7653 276.041 85.42 276.041 84.972C276.041 84.5333 275.892 84.1927 275.593 83.95C275.304 83.698 274.898 83.572 274.375 83.572H272.401V86.358ZM274.557 90.698C275.099 90.698 275.523 90.5673 275.831 90.306C276.139 90.0447 276.293 89.6807 276.293 89.214C276.293 88.738 276.13 88.36 275.803 88.08C275.477 87.8 275.043 87.66 274.501 87.66H272.401V90.698H274.557ZM281.22 83.558V86.414H284.58V87.716H281.22V90.698H285V92H279.624V82.256H285V83.558H281.22Z" fill="black"/>
<line x1="211.004" y1="100.5" x2="286.011" y2="100.5" stroke="black"/>
</svg>
